<?xml version="1.0" encoding="UTF-8" standalone="no"?>
<!-- Created with Inkscape (http://www.inkscape.org/) -->

<svg
   width="210mm"
   height="297mm"
   viewBox="0 0 210 297"
   version="1.1"
   id="svg5"
   xml:space="preserve"
   xmlns:xlink="http://www.w3.org/1999/xlink"
   xmlns="http://www.w3.org/2000/svg"
   xmlns:svg="http://www.w3.org/2000/svg"><defs
     id="defs2"><linearGradient
       id="linearGradient2194"><stop
         style="stop-color:#ebebeb;stop-opacity:1;"
         offset="0.50426561"
         id="stop2190" /><stop
         style="stop-color:#000000;stop-opacity:1;"
         offset="1"
         id="stop2192" /></linearGradient><linearGradient
       id="linearGradient2186"><stop
         style="stop-color:#92a637;stop-opacity:0.60258347;"
         offset="0"
         id="stop2182" /><stop
         style="stop-color:#92a637;stop-opacity:0;"
         offset="1"
         id="stop2184" /></linearGradient><linearGradient
       id="linearGradient1635"><stop
         style="stop-color:#d4df9e;stop-opacity:1;"
         offset="0.50880933"
         id="stop1631" /><stop
         style="stop-color:#d4df9e;stop-opacity:0.58422852;"
         offset="1"
         id="stop1633" /></linearGradient><linearGradient
       id="linearGradient1609"><stop
         style="stop-color:#d4df9e;stop-opacity:1;"
         offset="0"
         id="stop1605" /><stop
         style="stop-color:#d4df9e;stop-opacity:0.60404831;"
         offset="1"
         id="stop1607" /></linearGradient><linearGradient
       id="linearGradient1505"><stop
         style="stop-color:#c8d889;stop-opacity:0.79037195;"
         offset="0.38596532"
         id="stop1501" /><stop
         style="stop-color:#d4df9e;stop-opacity:0.75699133;"
         offset="1"
         id="stop1503" /></linearGradient><linearGradient
       id="linearGradient3814"><stop
         style="stop-color:#000000;stop-opacity:1;"
         offset="0"
         id="stop3812" /></linearGradient><linearGradient
       xlink:href="#linearGradient1505"
       id="linearGradient1507"
       x1="28.115355"
       y1="211.19096"
       x2="35.470535"
       y2="228.20657"
       gradientUnits="userSpaceOnUse"
       gradientTransform="matrix(0.98204032,-0.01791309,0.0215044,0.95940033,3.9396201,17.679227)" /><linearGradient
       xlink:href="#linearGradient1635"
       id="linearGradient1613"
       x1="97.183022"
       y1="45.222393"
       x2="117.70245"
       y2="225.45439"
       gradientUnits="userSpaceOnUse"
       gradientTransform="translate(8.050366,8.4069948)" /><linearGradient
       xlink:href="#linearGradient1609"
       id="linearGradient1639"
       gradientUnits="userSpaceOnUse"
       x1="15.9608"
       y1="126.56575"
       x2="51.916618"
       y2="131.57053"
       gradientTransform="translate(8.050366,8.4069948)" /><linearGradient
       xlink:href="#linearGradient1955"
       id="linearGradient1613-6"
       x1="93.295517"
       y1="20.893345"
       x2="92.662773"
       y2="404.90179"
       gradientUnits="userSpaceOnUse"
       gradientTransform="translate(-0.89194552,-2.6946167)" /><linearGradient
       id="linearGradient1955"><stop
         style="stop-color:#92a637;stop-opacity:1;"
         offset="0"
         id="stop1951" /><stop
         style="stop-color:#92a637;stop-opacity:0;"
         offset="1"
         id="stop1953" /></linearGradient><linearGradient
       xlink:href="#linearGradient1955"
       id="linearGradient1507-5"
       x1="98.881973"
       y1="13.959131"
       x2="89.476768"
       y2="414.04233"
       gradientUnits="userSpaceOnUse"
       gradientTransform="matrix(0.98204032,-0.01791309,0.0215044,0.95940033,-5.0026955,6.5776153)" /><linearGradient
       xlink:href="#linearGradient1955"
       id="linearGradient1957"
       x1="101.34589"
       y1="29.300341"
       x2="116.77765"
       y2="94.448654"
       gradientUnits="userSpaceOnUse"
       gradientTransform="translate(-8.9423155,-11.101612)" /><linearGradient
       xlink:href="#linearGradient1955"
       id="linearGradient2157"
       gradientUnits="userSpaceOnUse"
       gradientTransform="translate(-0.89194552,-2.6946167)"
       x1="93.295517"
       y1="20.893345"
       x2="92.662773"
       y2="404.90179" /><linearGradient
       xlink:href="#linearGradient1955"
       id="linearGradient2159"
       gradientUnits="userSpaceOnUse"
       x1="101.34589"
       y1="29.300341"
       x2="100.71314"
       y2="413.30878"
       gradientTransform="translate(-8.9423155,-11.101612)" /><linearGradient
       xlink:href="#linearGradient1955"
       id="linearGradient2161"
       gradientUnits="userSpaceOnUse"
       x1="101.34589"
       y1="29.300341"
       x2="100.71314"
       y2="413.30878"
       gradientTransform="translate(-8.9423155,-11.101612)" /><linearGradient
       xlink:href="#linearGradient1955"
       id="linearGradient2163"
       gradientUnits="userSpaceOnUse"
       x1="101.34589"
       y1="29.300341"
       x2="100.71314"
       y2="413.30878"
       gradientTransform="translate(-8.9423155,-11.101612)" /><linearGradient
       xlink:href="#linearGradient2186"
       id="linearGradient2188"
       x1="120.51231"
       y1="178.95471"
       x2="118.54388"
       y2="91.944504"
       gradientUnits="userSpaceOnUse" /><linearGradient
       xlink:href="#linearGradient2194"
       id="linearGradient2196"
       x1="104.15976"
       y1="32.426067"
       x2="107.55145"
       y2="62.517899"
       gradientUnits="userSpaceOnUse" /></defs><g
     id="layer2"
     transform="matrix(1.1321915,0,0,1.0714812,-3.5463725,2.6397118)"><path
       style="fill:url(#linearGradient2157);fill-opacity:1;stroke:none;stroke-width:0.264583"
       d="M 166.40153,36.542289 44.141234,50.741789 45.26169,224.02301 173.74542,206.606 c 2.73413,-8.06949 -2.23075,-88.37112 -7.34389,-170.063711 z"
       id="path426-3" /><path
       style="fill:url(#linearGradient1613-6);fill-opacity:1;stroke:none;stroke-width:0.264583"
       d="m 50.189544,43.140582 -30.78703,-5.652564 -4.33366,172.766232 22.04222,-4.2524 6.62764,-155.590354 z"
       id="path860-5" /><path
       style="fill:url(#linearGradient1507-5);fill-opacity:1;stroke:none;stroke-width:0.256871"
       d="m 45.190684,224.18936 -8.82645,-17.84652 -20.98448,3.7067 z"
       id="path862-6" /><path
       style="fill:url(#linearGradient2159);fill-opacity:1;stroke:none;stroke-width:0.264583"
       d="m 36.451244,206.41716 8.74632,18.00875 -0.94273,-173.938423 z"
       id="path918-2" /><path
       style="fill:url(#linearGradient2161);fill-opacity:1;stroke:none;stroke-width:0.264583"
       d="m 166.24729,36.749942 -24.3535,-4.143306 4.43824,-6.951157 -126.238836,12.097374 30.02638,5.295188 -6.65322,7.468037 z"
       id="path920-9" /><path
       style="fill:url(#linearGradient2163);fill-opacity:1;stroke:none;stroke-width:0.264583"
       d="m 146.23497,26.042951 -4.27798,6.620864 4.91072,0.708734 z"
       id="path922-1" /><path
       style="fill:url(#linearGradient1957);fill-opacity:1;stroke:none;stroke-width:0.264583"
       d="m 74.606994,113.16451 c 16.78617,-4.03227 15.50219,50.61409 35.741156,49.2524 20.10046,-1.35237 8.49189,-53.96965 28.62419,-53.22944 22.95789,0.8441 -17.48399,51.7216 -0.17606,51.92715 27.36948,0.32504 27.85616,-74.124006 1.67177,-82.097223 -6.35779,11.5364 28.14024,48.411883 -32.51147,63.888343 -7.7746,-12.50694 -29.247346,-61.383724 -40.670166,-56.500057 -23.59779,13.243435 -6.76212,85.143627 19.54209,78.792807 17.319026,-4.18146 -35.86244,-46.35511 -12.22151,-52.03398 z"
       id="path1817-2" /></g><g
     id="layer1"><path
       style="fill:url(#linearGradient1613);fill-opacity:1;stroke:none;stroke-width:0.264583"
       d="m 175.34385,47.643901 -122.260304,14.1995 1.42348,173.739039 128.180714,-17.87483 c 2.73413,-8.06949 -2.23075,-88.37112 -7.34389,-170.063709 z"
       id="path426" /><path
       style="fill:url(#linearGradient1639);fill-opacity:1;stroke:none;stroke-width:0.264583"
       d="m 59.131856,54.242194 -30.78703,-5.652564 -4.33366,172.76623 22.04222,-4.2524 6.62764,-155.590352 z"
       id="path860" /><path
       style="fill:url(#linearGradient1507);fill-opacity:1;stroke:none;stroke-width:0.256871"
       d="m 54.133,235.29097 -8.826452,-17.84652 -20.984477,3.7067 z"
       id="path862" /><path
       style="fill:#92a637;fill-opacity:0.686492;stroke:none;stroke-width:0.264583"
       d="m 45.393556,217.51877 8.74632,18.00875 -0.94273,-173.938421 z"
       id="path918" /><path
       style="fill:url(#linearGradient2196);fill-opacity:1;stroke:none;stroke-width:0.264583"
       d="m 175.18961,47.851554 -24.3535,-4.143306 4.43824,-6.951157 -126.238844,12.097374 30.02638,5.295188 -6.65322,7.468037 z"
       id="path920" /><path
       style="fill:#d4df9e;fill-opacity:1;stroke:none;stroke-width:0.264583"
       d="m 155.17729,37.144563 -4.27798,6.620864 4.91072,0.708734 z"
       id="path922" /><path
       style="fill:url(#linearGradient2188);fill-opacity:1;stroke:none;stroke-width:0.264583"
       d="m 82.747279,126.38931 c 16.786173,-4.03227 15.502197,50.61409 35.741161,49.2524 20.10046,-1.35237 8.49189,-53.96965 28.62419,-53.22944 22.95789,0.8441 -17.48399,51.7216 -0.17606,51.92715 27.36948,0.32504 27.85616,-74.124 1.67177,-82.09722 -15.77146,11.13953 -24.42188,46.19592 -32.51147,63.88834 C 108.32227,143.6236 86.849518,94.746819 75.426706,99.630486 51.828915,112.87392 68.664586,184.77411 94.968796,178.42329 112.28782,174.24183 59.106352,132.06818 82.747279,126.38931 Z"
       id="path1817" /></g></svg>
